# xmcd
#
# Track frame offsets:
#	150
#	21483
#	34902
#	48542
#	70099
#	85304
#	103074
#	117380
#	134534
#	154971
#	170144
#	191940
#	204979
#
# Disc length: 2978 seconds
#
# Revision: 0
# Processed by: cddbd v1.5.2PL0 Copyright (c) Steve Scherf et al.
# Submitted via: dBpowerAMP V4.0
#
DISCID=c60ba00d
DTITLE=Nathan Carter - Stayin' Up All Night
DYEAR=1900
DGENRE=Country
TTITLE0=Wanna Dance
TTITLE1=Temple Bar
TTITLE2=Skinny Dippin'
TTITLE3=Island Town
TTITLE4=Wontcha Come Down
TTITLE5=Buy Me A Rose
TTITLE6=Two Doors Down
TTITLE7=Young To See
TTITLE8=Liverpool
TTITLE9=Good Time Girls
TTITLE10=Don't Know Lonely
TTITLE11=Banks Of The Roses
TTITLE12=Thank You
EXTD=
EXTT0=
EXTT1=
EXTT2=
EXTT3=
EXTT4=
EXTT5=
EXTT6=
EXTT7=
EXTT8=
EXTT9=
EXTT10=
EXTT11=
EXTT12=
PLAYORDER=
